<?xml version="1.0" encoding="utf-8"?>
<!-- Generator: Adobe Illustrator 16.0.0, SVG Export Plug-In . SVG Version: 6.00 Build 0)  -->
<!DOCTYPE svg PUBLIC "-//W3C//DTD SVG 1.1//EN" "http://www.w3.org/Graphics/SVG/1.1/DTD/svg11.dtd">
<svg version="1.1" id="icons" xmlns="http://www.w3.org/2000/svg" xmlns:xlink="http://www.w3.org/1999/xlink" x="0px" y="0px"
	 width="64px" height="64px" viewBox="0 0 64 64" enable-background="new 0 0 64 64" xml:space="preserve">
<g>
	<path fill="#545C66" d="M51,29.495h5l6.41,6.59c-0.36-0.37-0.86-0.59-1.41-0.59H3c-0.55,0-1.05,0.22-1.41,0.59L8,29.495h5v3h38
		V29.495z"/>
	<path fill="#656D78" d="M62.44,36.115c-0.01-0.01-0.021-0.021-0.03-0.03c-0.36-0.37-0.86-0.59-1.41-0.59H3
		c-0.55,0-1.05,0.22-1.41,0.59c-0.01,0.01-0.02,0.021-0.029,0.03C1.221,36.476,1,36.955,1,37.495v20.01c0,1.101,0.9,2,2,2h5h48h5
		c1.101,0,2-0.899,2-2v-20.01C63,36.955,62.78,36.476,62.44,36.115z"/>
	<path fill="#545C66" d="M55,56.505c0.55,0,1,0.45,1,1v1c0,0.55-0.45,1-1,1H9c-0.55,0-1-0.45-1-1v-1c0-0.55,0.45-1,1-1H55z"/>
	<path fill="#5D9CEC" d="M39,44.505c0.55,0,1,0.45,1,1v2c0,0.55-0.45,1-1,1H25c-0.55,0-1-0.45-1-1v-2c0-0.55,0.45-1,1-1H39z"/>
	<g>
		<path fill="#434A54" d="M52.999,33.498H11.001c-0.553,0-1-0.447-1-1c0-0.552,0.447-1,1-1h41.998c0.553,0,1,0.448,1,1
			C53.999,33.051,53.552,33.498,52.999,33.498z"/>
	</g>
	<g>
		<path fill="#545C66" d="M8.031,47.505c-0.553,0-1.005-0.447-1.005-1s0.442-1,0.994-1h0.011c0.552,0,1,0.447,1,1
			S8.583,47.505,8.031,47.505z"/>
	</g>
	<g>
		<path fill="#545C66" d="M12.031,47.505c-0.553,0-1.005-0.447-1.005-1s0.442-1,0.994-1h0.011c0.552,0,1,0.447,1,1
			S12.583,47.505,12.031,47.505z"/>
	</g>
	<g>
		<path fill="#545C66" d="M56.029,47.505c-0.553,0-1.005-0.447-1.005-1s0.442-1,0.994-1h0.011c0.552,0,1,0.447,1,1
			S56.581,47.505,56.029,47.505z"/>
	</g>
	<g>
		<path fill="#545C66" d="M52.029,47.505c-0.553,0-1.005-0.447-1.005-1s0.442-1,0.994-1h0.011c0.552,0,1,0.447,1,1
			S52.581,47.505,52.029,47.505z"/>
	</g>
	<polygon fill="#F5F7FA" points="51,10.495 45,10.495 45,4.495 	"/>
	<polygon fill="#E6E9ED" points="51,29.495 51,33.496 13,33.496 13,29.495 13,4.495 45,4.495 45,10.495 51,10.495 	"/>
	<rect x="8" y="58.505" fill="#545C66" width="48" height="1"/>
</g>
</svg>
